<?xml version="1.0" standalone="no"?>
<!DOCTYPE svg PUBLIC "-//W3C//DTD SVG 20010904//EN"
 "http://www.w3.org/TR/2001/REC-SVG-20010904/DTD/svg10.dtd">
<svg version="1.0" xmlns="http://www.w3.org/2000/svg"
 width="450.000000pt" height="450.000000pt" viewBox="0 0 450.000000 450.000000"
 preserveAspectRatio="xMidYMid meet">

<g transform="translate(0.000000,450.000000) scale(0.100000,-0.100000)"
fill="#000000" stroke="none">
<path d="M910 4238 c-6 -24 -13 -48 -15 -55 -5 -15 93 -107 175 -165 79 -55
177 -110 247 -137 l53 -21 82 41 c46 22 137 57 203 79 464 151 954 125 1377
-73 l98 -46 102 51 c120 58 241 136 317 205 l54 48 -13 58 -13 57 -71 -74
c-39 -40 -103 -94 -143 -120 -81 -52 -209 -116 -233 -116 -9 0 -60 20 -115 44
-229 100 -431 145 -695 153 -298 9 -540 -33 -811 -142 -74 -30 -143 -55 -152
-55 -22 0 -145 62 -217 108 -30 20 -92 74 -137 119 l-82 84 -11 -43z"/>
<path d="M3585 4026 c-185 -119 -732 -466 -1081 -685 -133 -83 -249 -151 -259
-151 -9 0 -103 55 -209 121 -105 67 -398 252 -651 412 -253 160 -497 314 -543
344 -45 29 -85 53 -87 53 -3 0 -5 -13 -5 -28 0 -25 14 -37 133 -112 72 -46
404 -257 737 -469 333 -211 613 -386 622 -389 9 -2 30 5 45 16 15 11 125 80
243 154 247 155 723 456 1018 643 196 125 202 130 202 162 0 18 -1 33 -2 32
-2 0 -75 -47 -163 -103z"/>
<path d="M760 3852 l0 -57 138 -84 c75 -47 272 -170 437 -274 165 -105 379
-240 475 -300 96 -60 224 -141 284 -180 l108 -71 -6 -50 c-12 -85 -36 -167
-73 -246 -51 -107 -167 -221 -284 -279 -286 -141 -637 -69 -836 172 -94 114
-143 262 -143 433 0 194 55 342 175 472 l63 68 -34 22 c-19 12 -40 22 -47 22
-33 0 -153 -177 -196 -289 -42 -109 -54 -181 -55 -306 0 -217 93 -429 249
-564 263 -228 618 -263 908 -89 44 26 83 48 87 48 4 0 26 -28 50 -62 77 -112
185 -257 191 -258 3 0 55 69 115 154 70 99 115 155 127 155 10 1 48 -17 85
-39 142 -86 345 -126 502 -100 173 29 310 100 436 225 70 70 89 97 132 186 64
133 85 216 85 344 0 207 -75 401 -213 558 l-42 48 -37 -27 c-20 -15 -37 -28
-38 -29 -1 0 25 -30 58 -65 150 -160 214 -419 159 -647 -73 -305 -329 -503
-650 -503 -357 0 -623 236 -665 591 l-7 56 134 85 c315 203 996 632 1146 723
l162 98 0 60 c0 59 0 59 -22 45 -13 -8 -158 -99 -323 -203 -165 -104 -415
-261 -555 -350 -483 -306 -578 -365 -593 -365 -8 0 -300 181 -649 401 -348
221 -679 430 -735 465 l-103 64 0 -58z m1509 -1274 c9 -27 88 -155 125 -204 6
-8 -15 -46 -65 -118 -41 -58 -76 -106 -79 -106 -3 0 -39 49 -79 109 l-73 109
47 62 c25 35 58 90 73 122 15 32 30 58 34 58 3 0 11 -15 17 -32z"/>
<path d="M1445 3176 c-110 -25 -199 -98 -248 -203 -34 -74 -32 -208 5 -285 34
-73 103 -142 176 -176 49 -23 70 -27 147 -27 76 0 99 4 146 26 79 37 133 90
171 167 29 60 33 76 33 152 0 74 -4 93 -31 151 -52 109 -133 173 -252 198 -62
13 -80 13 -147 -3z m19 -157 c35 -41 36 -106 2 -146 -21 -25 -31 -28 -81 -28
-50 0 -60 3 -81 28 -36 42 -34 109 5 148 25 24 38 29 79 29 44 0 54 -4 76 -31z"/>
<path d="M2904 3180 c-148 -31 -255 -144 -284 -300 -20 -106 21 -221 109 -303
77 -72 127 -91 241 -92 88 0 101 3 162 33 123 60 190 163 196 297 5 107 -20
174 -94 254 -85 92 -214 136 -330 111z m3 -145 c31 -21 45 -81 32 -128 -16
-61 -93 -86 -159 -52 -58 30 -62 141 -7 180 28 19 106 19 134 0z"/>
<path d="M682 2334 c-19 -35 -62 -198 -82 -309 -67 -368 -9 -704 174 -1008 64
-107 171 -250 223 -300 l30 -28 39 43 c22 24 53 62 69 85 17 24 37 43 45 43 9
0 42 -27 75 -61 78 -79 228 -192 338 -255 56 -32 87 -55 87 -66 0 -12 -8 -18
-21 -18 -12 0 -36 -15 -55 -34 -33 -33 -34 -37 -34 -110 0 -70 2 -77 25 -92
24 -16 27 -16 45 1 16 14 20 31 20 76 0 32 4 60 8 63 18 11 88 16 101 8 8 -6
16 -38 20 -77 9 -79 27 -100 65 -72 14 10 20 32 24 85 2 40 6 72 8 72 2 0 26
-5 54 -11 l50 -11 0 -56 c0 -32 7 -65 14 -74 30 -40 76 -8 76 53 0 46 5 48
102 20 66 -19 68 -19 130 0 96 29 108 27 108 -20 0 -23 7 -46 16 -55 19 -20
25 -20 49 -2 13 10 20 30 23 74 l4 60 44 11 c23 6 47 11 53 11 6 0 11 -32 13
-72 3 -67 5 -73 30 -88 25 -14 28 -13 42 5 10 13 15 43 16 83 l0 62 60 0 60 0
0 -54 c0 -39 6 -60 21 -80 25 -31 33 -32 59 -6 22 22 28 108 10 155 -13 33
-58 75 -81 75 -12 0 -19 7 -19 18 0 13 28 35 89 71 109 65 234 158 327 245 40
36 76 66 81 66 4 0 32 -31 60 -68 28 -37 61 -76 72 -86 21 -19 21 -18 63 29
398 451 507 957 327 1523 -17 50 -34 92 -39 92 -6 0 -10 -5 -10 -10 0 -18
-154 -172 -210 -209 -30 -21 -86 -55 -125 -76 -147 -81 -263 -240 -306 -421
-18 -74 -20 -108 -16 -204 7 -151 29 -232 120 -451 9 -24 7 -32 -23 -68 -77
-98 -287 -252 -469 -344 -134 -69 -203 -96 -373 -147 l-138 -41 -95 26 c-348
95 -650 261 -860 474 l-69 71 13 32 c93 225 121 337 121 483 0 129 -19 217
-71 322 -53 110 -157 219 -274 285 -120 68 -233 163 -297 247 -24 31 -26 32
-36 15z m121 -227 c28 -23 98 -71 155 -105 57 -35 127 -88 157 -117 192 -192
205 -546 34 -875 -49 -94 -105 -170 -124 -170 -32 0 -173 207 -240 352 -75
165 -115 356 -115 556 0 178 37 402 66 402 8 0 38 -19 67 -43z m2991 -34 c80
-375 23 -728 -165 -1029 -67 -106 -145 -204 -164 -204 -35 0 -140 184 -189
330 -99 297 -51 580 126 735 25 22 87 65 138 95 50 30 117 76 148 102 31 26
64 47 73 47 12 1 20 -18 33 -76z"/>
<path d="M2253 1833 l-23 -4 0 -394 0 -395 -26 -17 c-15 -9 -33 -32 -40 -50
-12 -28 -12 -38 0 -67 15 -36 59 -66 97 -66 11 0 36 15 55 34 47 47 46 86 -2
134 l-37 37 2 397 c0 219 0 397 -2 397 -1 -1 -12 -4 -24 -6z m29 -860 c24 -21
23 -45 -2 -68 -30 -27 -70 -7 -70 34 0 45 39 64 72 34z"/>
</g>
</svg>
